<svg width="173" height="40" viewBox="0 0 173 40" fill="none" xmlns="http://www.w3.org/2000/svg">
<path d="M2.78916 32.7802L0.289258 29.1348H2.09512L3.79316 31.7425L5.50469 29.1348H7.29707L4.79043 32.7802L7.4251 36.5873H5.63271L3.79316 33.7977L1.96035 36.5873H0.167969L2.78916 32.7802Z" fill="white"/>
<path d="M7.60029 29.1348H9.32529L10.8414 33.3597C11.0705 33.9616 11.2232 34.5276 11.2996 35.0577H11.3535C11.3939 34.8106 11.4681 34.5119 11.5759 34.1615C11.6837 33.8066 12.2542 32.1311 13.2874 29.1348H14.9989L11.8117 37.5778C11.2322 39.1276 10.2664 39.9025 8.91426 39.9025C8.56387 39.9025 8.22246 39.8644 7.89004 39.788V38.5347C8.12813 38.5886 8.3999 38.6155 8.70537 38.6155C9.46904 38.6155 10.0059 38.173 10.3158 37.2881L10.5921 36.5873L7.60029 29.1348Z" fill="white"/>
<path d="M23.2803 39.222H21.8046V36.5873H16.697V39.222H15.2348V35.3609H15.8412C16.3713 34.6018 16.7913 33.6854 17.1013 32.6117C17.4157 31.5336 17.6021 30.3746 17.6605 29.1348H22.1887V35.3609H23.2803V39.222ZM20.6321 35.3609V30.3477H19.0284C18.9431 31.273 18.7634 32.185 18.4894 33.0834C18.2198 33.9818 17.8896 34.741 17.4988 35.3609H20.6321Z" fill="white"/>
<path d="M31.2719 32.8476C31.2719 34.0649 30.9597 35.015 30.3353 35.6979C29.7108 36.3807 28.8416 36.7221 27.7275 36.7221C27.0312 36.7221 26.4158 36.5648 25.8813 36.2504C25.3467 35.9359 24.9356 35.4845 24.6481 34.896C24.3606 34.3075 24.2169 33.6247 24.2169 32.8476C24.2169 31.6392 24.5269 30.6958 25.1468 30.0175C25.7667 29.3392 26.6404 29 27.768 29C28.8461 29 29.6996 29.3481 30.3285 30.0444C30.9574 30.7362 31.2719 31.6706 31.2719 32.8476ZM25.8476 32.8476C25.8476 34.5681 26.4832 35.4283 27.7545 35.4283C29.0123 35.4283 29.6412 34.5681 29.6412 32.8476C29.6412 31.145 29.0078 30.2938 27.741 30.2938C27.0762 30.2938 26.5933 30.5139 26.2923 30.9541C25.9958 31.3943 25.8476 32.0255 25.8476 32.8476Z" fill="white"/>
<path d="M36.7703 32.7532V29.1348H38.246V32.7532L41.1165 29.1348H42.7876L39.8564 32.7397L43.0504 36.5873H41.3052L38.246 32.8071V36.5873H36.7703V32.8071L33.7179 36.5873H31.9794L35.1666 32.7397L32.2422 29.1348H33.9133L36.7703 32.7532Z" fill="white"/>
<path d="M47.4572 36.7221C46.2982 36.7221 45.3908 36.3852 44.735 35.7113C44.0836 35.033 43.7579 34.1009 43.7579 32.9149C43.7579 31.6976 44.0611 30.7407 44.6676 30.0444C45.274 29.3481 46.1073 29 47.1675 29C48.1513 29 48.9284 29.2987 49.4989 29.8962C50.0694 30.4937 50.3547 31.3157 50.3547 32.3624V33.2182H45.3886C45.411 33.9414 45.6064 34.4984 45.9748 34.8893C46.3432 35.2756 46.862 35.4687 47.5313 35.4687C47.9716 35.4687 48.3804 35.4283 48.7577 35.3475C49.1396 35.2621 49.5483 35.1229 49.9841 34.9297V36.2167C49.5978 36.4009 49.2069 36.5312 48.8116 36.6075C48.4163 36.6839 47.9648 36.7221 47.4572 36.7221ZM47.1675 30.1994C46.6644 30.1994 46.2601 30.3589 45.9546 30.6778C45.6536 30.9968 45.4739 31.4617 45.4155 32.0727H48.7981C48.7892 31.4572 48.6409 30.9923 48.3534 30.6778C48.0659 30.3589 47.6706 30.1994 47.1675 30.1994Z" fill="white"/>
<path d="M55.1591 36.7221C54.0315 36.7221 53.1735 36.3941 52.5851 35.7383C52.0011 35.0779 51.7091 34.1323 51.7091 32.9015C51.7091 31.6481 52.0145 30.6846 52.6255 30.0107C53.2409 29.3369 54.1281 29 55.2871 29C56.0732 29 56.7808 29.146 57.4097 29.438L56.9313 30.7115C56.2619 30.451 55.7094 30.3207 55.2736 30.3207C53.9844 30.3207 53.3397 31.1765 53.3397 32.888C53.3397 33.7235 53.4992 34.3524 53.8182 34.7747C54.1416 35.1925 54.6133 35.4014 55.2332 35.4014C55.9385 35.4014 56.6056 35.2262 57.2345 34.8758V36.2571C56.9515 36.4233 56.6482 36.5424 56.3248 36.6143C56.0059 36.6861 55.6173 36.7221 55.1591 36.7221Z" fill="white"/>
<path d="M64.5859 29.1348V30.3746H62.1602V36.5873H60.5699V30.3746H58.1441V29.1348H64.5859Z" fill="white"/>
<path d="M72.4899 31.0417C72.4899 31.9222 71.9756 32.4545 70.9469 32.6387V32.6926C71.5219 32.76 71.9621 32.9419 72.2676 33.2384C72.573 33.5349 72.7258 33.9189 72.7258 34.3906C72.7258 35.0959 72.4563 35.6395 71.9172 36.0213C71.3826 36.3986 70.6032 36.5873 69.579 36.5873H66.0212V29.1348H69.5655C71.5151 29.1348 72.4899 29.7704 72.4899 31.0417ZM71.1019 34.2963C71.1019 33.9369 70.9626 33.6831 70.6841 33.5349C70.4056 33.3821 69.9878 33.3058 69.4308 33.3058H67.6047V35.4148H69.4712C70.5583 35.4148 71.1019 35.042 71.1019 34.2963ZM70.9064 31.1765C70.9064 30.88 70.7896 30.6666 70.5561 30.5363C70.327 30.4016 69.9833 30.3342 69.5251 30.3342H67.6047V32.1266H69.2893C69.8193 32.1266 70.2214 32.0592 70.4954 31.9244C70.7694 31.7852 70.9064 31.5358 70.9064 31.1765Z" fill="white"/>
<path d="M77.6178 36.7221C76.4588 36.7221 75.5514 36.3852 74.8955 35.7113C74.2441 35.033 73.9185 34.1009 73.9185 32.9149C73.9185 31.6976 74.2217 30.7407 74.8281 30.0444C75.4346 29.3481 76.2679 29 77.328 29C78.3118 29 79.089 29.2987 79.6595 29.8962C80.23 30.4937 80.5152 31.3157 80.5152 32.3624V33.2182H75.5491C75.5716 33.9414 75.767 34.4984 76.1354 34.8893C76.5037 35.2756 77.0226 35.4687 77.6919 35.4687C78.1321 35.4687 78.5409 35.4283 78.9183 35.3475C79.3001 35.2621 79.7089 35.1229 80.1446 34.9297V36.2167C79.7583 36.4009 79.3675 36.5312 78.9722 36.6075C78.5769 36.6839 78.1254 36.7221 77.6178 36.7221ZM77.328 30.1994C76.8249 30.1994 76.4206 30.3589 76.1151 30.6778C75.8142 30.9968 75.6345 31.4617 75.5761 32.0727H78.9587C78.9497 31.4572 78.8015 30.9923 78.514 30.6778C78.2265 30.3589 77.8312 30.1994 77.328 30.1994Z" fill="white"/>
<path d="M83.8979 29.1348V32.1266H87.4085V29.1348H88.992V36.5873H87.4085V33.3731H83.8979V36.5873H82.3144V29.1348H83.8979Z" fill="white"/>
<path d="M92.8463 29.1348V32.1266H96.3569V29.1348H97.9404V36.5873H96.3569V33.3731H92.8463V36.5873H91.2628V29.1348H92.8463Z" fill="white"/>
<path d="M104.874 36.5873L104.557 35.5496H104.504C104.144 36.0033 103.783 36.3133 103.419 36.4795C103.055 36.6412 102.588 36.7221 102.017 36.7221C101.285 36.7221 100.712 36.5244 100.299 36.1291C99.89 35.7338 99.6856 35.1745 99.6856 34.4513C99.6856 33.6831 99.9709 33.1036 100.541 32.7128C101.112 32.322 101.981 32.1086 103.149 32.0727L104.436 32.0322V31.6347C104.436 31.1585 104.324 30.8036 104.099 30.57C103.879 30.3319 103.535 30.2129 103.068 30.2129C102.686 30.2129 102.32 30.269 101.97 30.3813C101.62 30.4937 101.283 30.6262 100.959 30.7789L100.447 29.6469C100.851 29.4357 101.294 29.2763 101.775 29.1685C102.255 29.0562 102.709 29 103.136 29C104.083 29 104.798 29.2066 105.278 29.6199C105.764 30.0332 106.006 30.6823 106.006 31.5673V36.5873H104.874ZM102.516 35.5092C103.091 35.5092 103.551 35.3497 103.897 35.0308C104.247 34.7073 104.423 34.2559 104.423 33.6764V33.0295L103.466 33.0699C102.72 33.0969 102.177 33.2227 101.835 33.4473C101.498 33.6674 101.33 34.0065 101.33 34.4647C101.33 34.7972 101.429 35.0555 101.626 35.2396C101.824 35.4193 102.12 35.5092 102.516 35.5092Z" fill="white"/>
<path d="M108.978 36.5873H107.206L109.281 33.5349C108.778 33.3911 108.383 33.1351 108.095 32.7667C107.808 32.3938 107.664 31.9334 107.664 31.3854C107.664 30.6801 107.915 30.1298 108.418 29.7345C108.922 29.3347 109.609 29.1348 110.48 29.1348H113.876V36.5873H112.286V33.7168H110.784L108.978 36.5873ZM109.207 31.3988C109.207 31.7807 109.351 32.0682 109.638 32.2613C109.93 32.45 110.321 32.5443 110.811 32.5443H112.286V30.3342H110.561C110.13 30.3342 109.795 30.4263 109.557 30.6104C109.324 30.7946 109.207 31.0574 109.207 31.3988Z" fill="white"/>
<path d="M124.543 29.1348V30.3746H121.309V36.5873H119.725V29.1348H124.543Z" fill="white"/>
<path d="M130.641 36.5873L130.325 35.5496H130.271C129.911 36.0033 129.55 36.3133 129.186 36.4795C128.822 36.6412 128.355 36.7221 127.784 36.7221C127.052 36.7221 126.479 36.5244 126.066 36.1291C125.657 35.7338 125.453 35.1745 125.453 34.4513C125.453 33.6831 125.738 33.1036 126.309 32.7128C126.879 32.322 127.748 32.1086 128.916 32.0727L130.203 32.0322V31.6347C130.203 31.1585 130.091 30.8036 129.866 30.57C129.646 30.3319 129.303 30.2129 128.835 30.2129C128.454 30.2129 128.088 30.269 127.737 30.3813C127.387 30.4937 127.05 30.6262 126.726 30.7789L126.214 29.6469C126.619 29.4357 127.061 29.2763 127.542 29.1685C128.022 29.0562 128.476 29 128.903 29C129.851 29 130.565 29.2066 131.046 29.6199C131.531 30.0332 131.773 30.6823 131.773 31.5673V36.5873H130.641ZM128.283 35.5092C128.858 35.5092 129.318 35.3497 129.664 35.0308C130.015 34.7073 130.19 34.2559 130.19 33.6764V33.0295L129.233 33.0699C128.487 33.0969 127.944 33.2227 127.602 33.4473C127.265 33.6674 127.097 34.0065 127.097 34.4647C127.097 34.7972 127.196 35.0555 127.393 35.2396C127.591 35.4193 127.888 35.5092 128.283 35.5092Z" fill="white"/>
<path d="M140.109 36.5873H138.512V30.3746H136.456C136.331 31.9738 136.16 33.2227 135.944 34.1211C135.733 35.0195 135.455 35.6754 135.109 36.0887C134.767 36.502 134.323 36.7086 133.775 36.7086C133.429 36.7086 133.139 36.6592 132.905 36.5604V35.3205C133.072 35.3834 133.238 35.4148 133.404 35.4148C133.862 35.4148 134.222 34.9005 134.482 33.8718C134.747 32.8386 134.954 31.2596 135.102 29.1348H140.109V36.5873Z" fill="white"/>
<path d="M145.634 36.7221C144.475 36.7221 143.568 36.3852 142.912 35.7113C142.26 35.033 141.935 34.1009 141.935 32.9149C141.935 31.6976 142.238 30.7407 142.844 30.0444C143.451 29.3481 144.284 29 145.344 29C146.328 29 147.105 29.2987 147.676 29.8962C148.246 30.4937 148.531 31.3157 148.531 32.3624V33.2182H143.565C143.588 33.9414 143.783 34.4984 144.152 34.8893C144.52 35.2756 145.039 35.4687 145.708 35.4687C146.148 35.4687 146.557 35.4283 146.934 35.3475C147.316 35.2621 147.725 35.1229 148.161 34.9297V36.2167C147.775 36.4009 147.384 36.5312 146.988 36.6075C146.593 36.6839 146.142 36.7221 145.634 36.7221ZM145.344 30.1994C144.841 30.1994 144.437 30.3589 144.131 30.6778C143.83 30.9968 143.651 31.4617 143.592 32.0727H146.975C146.966 31.4572 146.818 30.9923 146.53 30.6778C146.243 30.3589 145.847 30.1994 145.344 30.1994Z" fill="white"/>
<path d="M154.111 36.7221C153.167 36.7221 152.435 36.3829 151.914 35.7046H151.82C151.883 36.3335 151.914 36.7153 151.914 36.8501V39.9025H150.331V29.1348H151.611C151.647 29.274 151.721 29.6064 151.833 30.132H151.914C152.408 29.3773 153.149 29 154.138 29C155.068 29 155.791 29.3369 156.307 30.0107C156.829 30.6846 157.089 31.6302 157.089 32.8476C157.089 34.0649 156.824 35.015 156.294 35.6979C155.768 36.3807 155.041 36.7221 154.111 36.7221ZM153.727 30.2938C153.098 30.2938 152.637 30.4779 152.345 30.8463C152.058 31.2146 151.914 31.8031 151.914 32.6117V32.8476C151.914 33.755 152.058 34.4131 152.345 34.8219C152.633 35.2262 153.102 35.4283 153.754 35.4283C154.302 35.4283 154.724 35.2037 155.02 34.7545C155.317 34.3053 155.465 33.6651 155.465 32.8341C155.465 31.9985 155.317 31.3674 155.02 30.9406C154.728 30.5094 154.297 30.2938 153.727 30.2938Z" fill="white"/>
<path d="M162.183 36.7221C161.024 36.7221 160.117 36.3852 159.461 35.7113C158.81 35.033 158.484 34.1009 158.484 32.9149C158.484 31.6976 158.787 30.7407 159.394 30.0444C160 29.3481 160.833 29 161.893 29C162.877 29 163.654 29.2987 164.225 29.8962C164.795 30.4937 165.081 31.3157 165.081 32.3624V33.2182H160.115C160.137 33.9414 160.332 34.4984 160.701 34.8893C161.069 35.2756 161.588 35.4687 162.257 35.4687C162.698 35.4687 163.106 35.4283 163.484 35.3475C163.866 35.2621 164.274 35.1229 164.71 34.9297V36.2167C164.324 36.4009 163.933 36.5312 163.538 36.6075C163.142 36.6839 162.691 36.7221 162.183 36.7221ZM161.893 30.1994C161.39 30.1994 160.986 30.3589 160.681 30.6778C160.38 30.9968 160.2 31.4617 160.142 32.0727H163.524C163.515 31.4572 163.367 30.9923 163.079 30.6778C162.792 30.3589 162.397 30.1994 161.893 30.1994Z" fill="white"/>
<path d="M167.641 36.5873H165.869L167.944 33.5349C167.441 33.3911 167.046 33.1351 166.758 32.7667C166.471 32.3938 166.327 31.9334 166.327 31.3854C166.327 30.6801 166.579 30.1298 167.082 29.7345C167.585 29.3347 168.272 29.1348 169.144 29.1348H172.54V36.5873H170.95V33.7168H169.447L167.641 36.5873ZM167.87 31.3988C167.87 31.7807 168.014 32.0682 168.302 32.2613C168.594 32.45 168.984 32.5443 169.474 32.5443H170.95V30.3342H169.225C168.793 30.3342 168.459 30.4263 168.221 30.6104C167.987 30.7946 167.87 31.0574 167.87 31.3988Z" fill="white"/>
<path d="M0 21.5989H11.6611C16.2601 21.5989 18.6142 19.5161 18.6142 15.5512V15.4895C18.6142 12.5428 17.1175 10.7532 14.2334 10.244V9.96634C16.6498 9.50351 17.9126 7.92987 17.9126 5.36886V5.29173C17.9126 1.80505 15.7145 0 11.4117 0H0V21.5989ZM4.59897 8.84011V3.0547H10.0398C12.2379 3.0547 13.3292 4.01122 13.3292 5.89341V5.95512C13.3292 7.86816 12.2379 8.84011 10.0398 8.84011H4.59897ZM4.59897 18.5288V11.648H10.1801C12.5965 11.648 13.7969 12.7896 13.7969 15.0266V15.0884C13.7969 17.3717 12.5965 18.5288 10.1801 18.5288H4.59897Z" fill="white"/>
<path d="M22.9462 0V21.5989H27.4828V0H22.9462Z" fill="white"/>
<path d="M36.9751 22C40.6387 22 43.3046 20.3801 44.2867 17.6339L44.5985 17.7111C44.0061 20.7041 44.6297 22 48.2153 22C48.6674 22 49.1195 21.9537 49.4937 21.892L50.0237 19.223L49.2443 19.2076C48.3868 19.1921 48.1374 18.9916 48.1374 17.8962V10.4755C48.1374 6.80365 45.6742 5.04488 40.4205 5.04488C34.8393 5.04488 32.0176 7.2202 32.2514 10.9846L36.7257 11.3548C36.5386 8.87097 37.817 7.74474 40.3269 7.74474C42.5718 7.74474 43.6319 8.56241 43.6319 10.4292V11.3394L39.2045 12.1417C34.777 12.9593 31.8461 14.3478 31.8461 17.7419V17.7882C31.8461 20.4727 33.6857 22 36.9751 22ZM38.7835 19.007C37.2557 19.007 36.4295 18.467 36.4295 17.3562V17.3254C36.4295 15.7363 37.8793 15.0884 40.7478 14.533L43.6319 13.9776V14.7335C43.6319 17.2174 41.3714 19.007 38.7835 19.007Z" fill="white"/>
<path d="M53.8414 21.5989H58.378V14.0701C58.378 10.4292 60.1084 8.17672 62.9769 8.17672C65.1127 8.17672 66.1728 9.27209 66.1728 11.3703V21.5989H70.7095V10.2903C70.7095 6.89621 68.6984 5.10659 64.9568 5.10659C61.5583 5.10659 59.2354 6.58766 57.8635 9.67321L57.5517 9.53436C58.1753 7.69846 58.3936 6.60309 58.3936 5.39972H53.8414V21.5989Z" fill="white"/>
<path d="M84.2083 21.9846C89.5556 21.9846 92.5488 19.8555 93.0009 15.7363L88.4175 15.2272C88.2305 17.8191 86.7962 19.1304 84.2239 19.1304C81.3398 19.1304 79.8432 17.3408 79.8432 13.8079V13.0519C79.8432 9.59607 81.3554 7.85273 84.1771 7.85273C86.7806 7.85273 88.1369 9.28752 88.3396 12.1571L92.8606 11.648C92.502 7.28191 89.618 5.01403 84.1927 5.01403C78.2998 5.01403 75.1974 7.86816 75.1974 13.3296V13.5302C75.1974 19.0842 78.2686 21.9846 84.2083 21.9846Z" fill="white"/>
<path d="M97.5201 21.5989H102.057V14.0701C102.057 10.4292 103.772 8.19215 106.656 8.19215C108.791 8.19215 109.852 9.27209 109.852 11.3703V21.5989H114.388V10.2903C114.388 6.89621 112.362 5.10659 108.636 5.10659C105.206 5.10659 102.899 6.58766 101.542 9.65778L101.215 9.53436C101.823 7.80645 102.041 6.52595 102.057 4.9986V0H97.5201V21.5989Z" fill="white"/>
<path d="M123.803 22C127.466 22 130.132 20.3801 131.114 17.6339L131.426 17.7111C130.833 20.7041 131.457 22 135.043 22C135.495 22 135.947 21.9537 136.321 21.892L136.851 19.223L136.072 19.2076C135.214 19.1921 134.965 18.9916 134.965 17.8962V10.4755C134.965 6.80365 132.502 5.04488 127.248 5.04488C121.667 5.04488 118.845 7.2202 119.079 10.9846L123.553 11.3548C123.366 8.87097 124.644 7.74474 127.154 7.74474C129.399 7.74474 130.459 8.56241 130.459 10.4292V11.3394L126.032 12.1417C121.604 12.9593 118.673 14.3478 118.673 17.7419V17.7882C118.673 20.4727 120.513 22 123.803 22ZM125.611 19.007C124.083 19.007 123.257 18.467 123.257 17.3562V17.3254C123.257 15.7363 124.707 15.0884 127.575 14.533L130.459 13.9776V14.7335C130.459 17.2174 128.199 19.007 125.611 19.007Z" fill="white"/>
<path d="M140.669 21.5989H145.205V14.8261C145.205 10.5989 146.53 9.04067 149.991 8.79383L152.221 8.62412L151.691 4.8906C148.027 5.1683 146.328 6.30996 144.644 9.67321L144.348 9.53436C145.081 7.37447 145.252 6.51052 145.221 5.39972H140.669V21.5989Z" fill="white"/>
<path d="M162.243 21.892C165.61 21.892 167.809 20.3492 168.915 17.5568L169.243 17.6648C168.713 19.3619 168.432 20.7041 168.417 21.5989H173V0H168.463V4.39691C168.463 6.09397 168.697 7.46704 169.258 9.3338L168.947 9.45722C167.84 6.68022 165.626 5.07574 162.243 5.07574C157.566 5.07574 155.103 7.89902 155.103 13.2987V13.6844C155.103 19.0687 157.566 21.892 162.243 21.892ZM163.958 19.115C161.152 19.115 159.686 17.3408 159.686 13.8387V13.129C159.686 9.6115 161.152 7.82188 163.958 7.82188C166.889 7.82188 168.463 9.70407 168.463 13.2062V13.7616C168.463 17.2482 166.889 19.115 163.958 19.115Z" fill="white"/>
</svg>
