<svg width="30" height="29" viewBox="0 0 30 29" fill="none" xmlns="http://www.w3.org/2000/svg">
<path fill-rule="evenodd" clip-rule="evenodd" d="M5.32763 13.5105C5.32763 19.2726 10.0376 24.1741 16.1246 24.1741C22.2115 24.1741 26.9215 19.2726 26.9215 13.5105C26.9215 7.74829 22.2115 2.84682 16.1246 2.84682C10.0376 2.84682 5.32763 7.74829 5.32763 13.5105ZM7.31717 23.516C9.66576 25.585 12.7486 26.84 16.1246 26.84C23.4863 26.84 29.4541 20.8722 29.4541 13.5105C29.4541 6.14875 23.4863 0.180908 16.1246 0.180908C8.76285 0.180908 2.79502 6.14875 2.79502 13.5105C2.79502 16.6727 3.8962 19.5778 5.73602 21.8631L-0.00037384 27.4092L1.64498 29L7.31717 23.516Z" fill="white"/>
</svg>
